<svg xmlns="http://www.w3.org/2000/svg" version="1.1" xmlns:xlink="http://www.w3.org/1999/xlink" xmlns:svgjs="http://svgjs.dev/svgjs" width="1440" height="560" preserveAspectRatio="none" viewBox="0 0 1440 560"><g mask="url(&quot;#SvgjsMask1043&quot;)" fill="none"><path d="M1400.211,314.745C1441.146,317.904,1483.983,300.427,1503.461,264.284C1522.218,229.48,1507.347,188.44,1486.326,154.954C1466.902,124.013,1436.706,101.478,1400.211,99.813C1360.547,98.004,1317.768,111.264,1299.324,146.425C1281.715,179.994,1301.822,217.712,1321.31,250.226C1340.03,281.458,1363.906,311.943,1400.211,314.745" fill="rgba(255, 225, 168, 0.2)" class="triangle-float3"></path><path d="M1346.7555640578034 70.27750040237532L1451.2402894402658 104.3367684743751 1432.9099882291448 10.03554376475779z" fill="rgba(255, 225, 168, 0.2)" class="triangle-float3"></path><path d="M1179.669,502.65C1199.578,502.234,1213.626,485.341,1223.258,467.913C1232.5,451.192,1237.741,431.28,1228.293,414.674C1218.761,397.921,1198.931,391.993,1179.669,391.299C1158.786,390.547,1135.283,392.993,1124.572,410.936C1113.687,429.17,1121.871,451.599,1132.807,469.803C1143.336,487.329,1159.227,503.077,1179.669,502.65" fill="rgba(255, 225, 168, 0.2)" class="triangle-float2"></path><path d="M1307.0930817717754 423.370302046961L1282.2947299960622 355.23739050349644 1192.494538568722 426.50137393879857z" fill="rgba(255, 225, 168, 0.2)" class="triangle-float2"></path><path d="M1112.842,382.976C1162.707,379.346,1202.213,343.695,1224.892,299.138C1245.409,258.829,1241.855,212.18,1219.902,172.635C1197.202,131.743,1159.44,101.297,1112.842,97.295C1057.973,92.583,998.535,104.96,968.368,151.033C935.73,200.88,936.961,267.231,968.462,317.804C998.384,365.841,1056.397,387.085,1112.842,382.976" fill="rgba(255, 225, 168, 0.2)" class="triangle-float3"></path><path d="M641.1239198524845 116.14843528162012L616.755428893639 241.51345330708511 766.4889378779495 140.51692624046566z" fill="rgba(255, 225, 168, 0.2)" class="triangle-float2"></path><path d="M1209.197,218.005C1242.868,217.148,1275.992,201.842,1291.437,171.91C1305.89,143.9,1292.903,112.479,1277.972,84.721C1261.875,54.796,1243.177,19.204,1209.197,19.022C1175.063,18.839,1156.061,54.336,1139.131,83.976C1122.402,113.264,1103.741,146.401,1119.367,176.292C1135.76,207.65,1173.824,218.906,1209.197,218.005" fill="rgba(255, 225, 168, 0.2)" class="triangle-float1"></path><path d="M177.57394828740638 232.182914395279L-2.2419350106120532 209.93032778368823 57.09066152591603 356.78365745030214z" fill="rgba(255, 225, 168, 0.2)" class="triangle-float2"></path><path d="M779.4443985367792 495.17453430761594L881.229637334467 542.637770646113 826.9076348752764 393.38929550992816z" fill="rgba(255, 225, 168, 0.2)" class="triangle-float3"></path><path d="M848.177,459.557C896.898,458.337,934.169,422.236,959.358,380.514C985.665,336.94,1006.787,283.523,980.923,239.684C955.321,196.288,898.562,192.258,848.177,192.065C797.318,191.871,740.593,195.519,713.663,238.663C685.614,283.598,699.362,341.094,726.913,386.337C753.235,429.562,797.584,460.824,848.177,459.557" fill="rgba(255, 225, 168, 0.2)" class="triangle-float1"></path><path d="M516.8089723293481 417.3533304794365L592.5997665132111 534.304778410953 649.7929886281073 426.73997194103646z" fill="rgba(255, 225, 168, 0.2)" class="triangle-float1"></path><path d="M1067.1060690263348 35.84076169867842L932.9024950441395 74.32301729041373 1105.5883246180701 170.0443356808737z" fill="rgba(255, 225, 168, 0.2)" class="triangle-float3"></path></g><defs><mask id="SvgjsMask1043"><rect width="1440" height="560" fill="#ffffff"></rect></mask><style>
                @keyframes float1 {
                    0%{transform: translate(0, 0)}
                    50%{transform: translate(-10px, 0)}
                    100%{transform: translate(0, 0)}
                }

                .triangle-float1 {
                    animation: float1 5s infinite;
                }

                @keyframes float2 {
                    0%{transform: translate(0, 0)}
                    50%{transform: translate(-5px, -5px)}
                    100%{transform: translate(0, 0)}
                }

                .triangle-float2 {
                    animation: float2 4s infinite;
                }

                @keyframes float3 {
                    0%{transform: translate(0, 0)}
                    50%{transform: translate(0, -10px)}
                    100%{transform: translate(0, 0)}
                }

                .triangle-float3 {
                    animation: float3 6s infinite;
                }
            </style></defs></svg>